<svg id="visual" viewBox="0 0 1024 256" width="1024" height="256" xmlns="http://www.w3.org/2000/svg" xmlns:xlink="http://www.w3.org/1999/xlink" version="1.1">
    <rect x="0" y="0" width="1024" height="256" fill="#931C1C"></rect>
    <path d="M0 182L128 181L256 157L384 164L512 116L640 156L768 169L896 166L1024 166L1024 257L896 257L768 257L640 257L512 257L384 257L256 257L128 257L0 257Z" fill="#f5730a"></path>
    <path d="M0 155L128 119L256 185L384 131L512 156L640 143L768 171L896 118L1024 185L1024 257L896 257L768 257L640 257L512 257L384 257L256 257L128 257L0 257Z" fill="#df6009"></path>
    <path d="M0 192L128 187L256 210L384 181L512 141L640 157L768 172L896 198L1024 142L1024 257L896 257L768 257L640 257L512 257L384 257L256 257L128 257L0 257Z" fill="#c94d08"></path>
    <path d="M0 187L128 179L256 177L384 181L512 206L640 210L768 157L896 196L1024 164L1024 257L896 257L768 257L640 257L512 257L384 257L256 257L128 257L0 257Z" fill="#b33b06"></path>
    <path d="M0 192L128 202L256 216L384 187L512 215L640 206L768 218L896 204L1024 191L1024 257L896 257L768 257L640 257L512 257L384 257L256 257L128 257L0 257Z" fill="#9d2804"></path>
    <path d="M0 218L128 235L256 245L384 246L512 225L640 250L768 224L896 248L1024 220L1024 257L896 257L768 257L640 257L512 257L384 257L256 257L128 257L0 257Z" fill="#871400"></path>
</svg>